Coordinates
version=1
nRows=8
nColumns=33
inDegrees=yes

Units are S.I. units (second, meters, Newtons, ...)
Angles are in degrees.

endheader
time	ground_thorax_rot_x	ground_thorax_rot_y	ground_thorax_rot_z	ground_thorax_tx	ground_thorax_ty	ground_thorax_tz	clav_prot_r	clav_elev_r	scapula_abduction_r	scapula_elevation_r	scapula_upward_rot_r	scapula_winging_r	shoulder_elv_r	plane_of_elev_r	axial_rot_r	elbow_flexion_r	pro_sup_r	wrist_flex_r	wrist_dev_r	clav_prot_l	clav_elev_l	scapula_abduction_l	scapula_elevation_l	scapula_upward_rot_l	scapula_winging_l	shoulder_elv_l	plane_of_elev_l	axial_rot_l	elbow_flexion_l	pro_sup_l	wrist_flex_l	wrist_dev_l
      2.62000000	      0.83799994	      7.79271294	     -2.22772041	     -0.15708422	      1.00405221	      0.00373507	    -15.24566099	    -18.93950848	    -19.75471100	    -12.51270337	      3.62353876	      8.77736202	     41.08478436	     -8.73023162	     24.13733093	     27.54435602	     22.06060036	      0.65457414	     20.69028387	      7.20747205	    -11.71764555	    -13.54793771	     -0.26646523	    -12.12818579	      0.97602336	     49.60116815	      4.69929653	     -6.52408130	     25.14747071	     24.97374793	     16.35527629	      0.20772139
      2.63000000	      0.78555806	      7.84419391	     -2.36536365	     -0.15673639	      1.00364018	      0.00348389	    -15.08209352	    -18.93832500	    -19.46913654	    -12.51006901	      3.64802977	      8.75558889	     40.95639148	     -8.57862114	     23.26584765	     27.32307267	     23.43851703	      1.04083037	     20.69995478	      7.57320025	    -11.32495295	    -14.16780987	     -0.63785884	    -12.14642855	      1.38276270	     49.21548657	      5.65531801	     -4.82344339	     24.87340903	     27.61381822	     15.75191310	     -1.08490820
      2.64000000	      0.82020174	      7.95220893	     -2.30126236	     -0.15624503	      1.00366200	      0.00344466	    -15.10792095	    -18.99781504	    -19.51319797	    -12.56670469	      3.63802556	      8.80250789	     40.96337925	     -8.59083437	     23.13923061	     27.15748215	     23.45379945	      0.98881171	     20.68668098	      7.56058655	    -11.49299988	    -14.15049212	     -0.48185519	    -12.13932863	      1.31470819	     49.05725743	      5.83661550	     -4.67772968	     24.81856363	     27.65267310	     15.76351315	     -1.07294911
      2.65000000	      0.80218589	      7.92907180	     -2.25295217	     -0.15575588	      1.00367419	      0.00358267	    -15.08933352	    -19.03396788	    -19.49600051	    -12.59099814	      3.60873935	      8.82977305	     40.90840939	     -8.55247070	     23.12988803	     27.17267932	     23.45192452	      0.99074889	     20.68458587	      7.57331712	    -11.55893913	    -14.16994653	     -0.42453690	    -12.14545366	      1.30064226	     49.00744238	      5.91857540	     -4.66819936	     24.83672933	     27.65336152	     15.76116304	     -1.07708700
      2.66000000	      0.91503124	      7.95639181	     -2.61671446	     -0.15523075	      1.00403865	      0.00368221	    -15.17899489	    -19.27671716	    -19.59642344	    -12.85844050	      3.67629519	      9.00100673	     40.88129751	     -8.24394781	     22.63320289	     26.72597294	     23.45195364	      0.86292128	     20.49418194	      7.49848809	    -11.80838283	    -14.08150651	     -0.13681152	    -12.00360298	      1.17272571	     48.86374635	      6.45582255	     -3.62684228	     24.24591715	     27.77185472	     15.53806843	     -0.99383188
      2.67000000	      0.89204664	      7.95918261	     -2.56569010	     -0.15483638	      1.00399708	      0.00375618	    -15.16418964	    -19.29981900	    -19.57589431	    -12.87519223	      3.66167751	      9.01669990	     40.85076156	     -8.21423286	     22.63194837	     26.73433184	     23.45031099	      0.86569143	     20.49089638	      7.50645990	    -11.85352253	    -14.09529630	     -0.09631412	    -12.00463530	      1.16315452	     48.82800556	      6.52452024	     -3.61700923	     24.27574054	     27.77021462	     15.53114812	     -1.00311167
      2.68000000	      0.90417773	      8.11429544	     -2.59254798	     -0.15447623	      1.00399754	      0.00368649	    -15.14783989	    -19.32447999	    -19.54067359	    -12.89761691	      3.66015947	      9.03078969	     40.87808636	     -8.20363160	     22.59113431	     26.57135124	     23.44989861	      0.84355972	     20.43956842	      7.49481421	    -11.91552761	    -14.08033180	     -0.03105775	    -11.98323579	      1.13142353	     48.73039105	      6.74790183	     -3.39293082	     24.29333526	     27.75739648	     15.44730052	     -1.03639837
      2.69000000	      0.90050743	      8.10548093	     -2.54901439	     -0.15423381	      1.00397005	      0.00379940	    -15.13681467	    -19.34945594	    -19.52580739	    -12.92107466	      3.65964391	      9.04452479	     40.85743739	     -8.16351441	     22.58392433	     26.58871385	     23.44601822	      0.84767568	     20.43320250	      7.50063739	    -11.93954572	    -14.09246261	     -0.00864835	    -11.98264731	      1.12396435	     48.71127462	      6.78790758	     -3.38082902	     24.29622951	     27.75530879	     15.44144567	     -1.03963808
